<svg width="117" height="33" viewBox="0 0 117 33" fill="none" xmlns="http://www.w3.org/2000/svg">
<path fill-rule="evenodd" clip-rule="evenodd" d="M12.954 5.38171C13.3406 5.34371 13.7309 5.3912 14.0966 5.52077C14.4624 5.65034 14.7945 5.85875 15.069 6.13093L16.7846 7.82947C17.0602 8.10289 17.271 8.43357 17.4016 8.79755C17.5323 9.16153 17.5796 9.54972 17.5401 9.93403C17.5044 10.279 17.5465 10.6275 17.6634 10.9545C17.7802 11.2814 17.9689 11.5786 18.2158 11.8245C18.6558 12.2545 19.2463 12.5001 19.8645 12.5102C20.4826 12.5204 21.081 12.2944 21.5353 11.8792C21.8963 11.5425 22.1419 11.1022 22.2373 10.6203C22.3328 10.1384 22.2735 9.63893 22.0677 9.19208C21.8618 8.74524 21.5199 8.37342 21.0897 8.12883C20.6596 7.88424 20.1629 7.77915 19.6693 7.82831C19.2827 7.86656 18.8923 7.81918 18.5265 7.6896C18.1607 7.56002 17.8286 7.35147 17.5542 7.07909L15.8375 5.38055C15.562 5.10681 15.3513 4.77592 15.2207 4.41177C15.09 4.04763 15.0426 3.6593 15.082 3.27483C15.1308 2.79147 15.0274 2.305 14.7859 1.88215C14.5444 1.45929 14.1767 1.12078 13.7332 0.913056C13.2897 0.70533 12.7921 0.638566 12.3088 0.721926C11.8254 0.805285 11.38 1.03468 11.0335 1.37865C10.6871 1.72261 10.4566 2.16428 10.3737 2.64307C10.2909 3.12186 10.3597 3.61431 10.5707 4.05284C10.7817 4.49138 11.1247 4.85452 11.5524 5.09244C11.9802 5.33036 12.4718 5.43141 12.9599 5.38171H12.954ZM18.5841 27.2155C18.95 27.3449 19.3404 27.392 19.7269 27.3534C20.221 27.3029 20.7187 27.4071 21.1499 27.6512C21.5812 27.8954 21.9243 28.2672 22.131 28.7144C22.3377 29.1616 22.3977 29.6617 22.3024 30.1444C22.2071 30.6271 21.9614 31.0681 21.5999 31.4054C21.1456 31.8206 20.5473 32.0466 19.9291 32.0365C19.3109 32.0263 18.7205 31.7807 18.2804 31.3507C18.0335 31.1048 17.8448 30.8076 17.728 30.4807C17.6112 30.1537 17.5691 29.8052 17.6048 29.4602C17.6443 29.0759 17.5969 28.6877 17.4663 28.3238C17.3356 27.9598 17.1248 27.6291 16.8492 27.3557L15.1325 25.6571C14.858 25.385 14.5259 25.1766 14.1601 25.047C13.7943 24.9174 13.404 24.8699 13.0174 24.9079C12.5294 24.9574 12.0379 24.8561 11.6103 24.618C11.1827 24.3799 10.8399 24.0167 10.6291 23.5781C10.4182 23.1395 10.3496 22.6471 10.4326 22.1684C10.5156 21.6897 10.7462 21.2481 11.0927 20.9043C11.4392 20.5604 11.8847 20.3312 12.368 20.2479C12.8514 20.1647 13.3489 20.2315 13.7923 20.4393C14.2357 20.6471 14.6034 20.9856 14.8448 21.4085C15.0862 21.8313 15.1896 22.3177 15.1407 22.801C15.1009 23.1855 15.148 23.574 15.2787 23.9382C15.4094 24.3025 15.6204 24.6333 15.8963 24.9068L17.6118 26.6053C17.8861 26.8777 18.2183 27.0861 18.5841 27.2155ZM11.2636 27.8742C11.6888 27.5289 12.2219 27.3404 12.7718 27.3406C13.084 27.3404 13.3932 27.4012 13.6815 27.5196C13.9699 27.638 14.2318 27.8116 14.4521 28.0305C14.8409 28.4157 15.0827 28.9224 15.1365 29.4643C15.1902 30.0062 15.0524 30.5498 14.7467 31.0024C14.441 31.4551 13.9862 31.7887 13.4599 31.9466C12.9335 32.1045 12.3682 32.0768 11.8602 31.8682C11.3521 31.6596 10.9329 31.2831 10.6738 30.8027C10.4148 30.3224 10.332 29.768 10.4395 29.234C10.547 28.7 10.8383 28.2194 11.2636 27.8742ZM22.241 3.50079C22.1493 3.95733 21.9229 4.37669 21.5905 4.70584C21.3698 4.92453 21.1078 5.09802 20.8194 5.21638C20.531 5.33475 20.2218 5.39568 19.9096 5.39568C19.5974 5.39568 19.2882 5.33475 18.9998 5.21638C18.7114 5.09802 18.4494 4.92453 18.2287 4.70584C17.8963 4.37669 17.6699 3.95733 17.5782 3.50079C17.4865 3.04426 17.5335 2.57105 17.7134 2.141C17.8934 1.71095 18.1981 1.34339 18.589 1.08478C18.9799 0.826179 19.4394 0.688148 19.9096 0.688148C20.3797 0.688148 20.8393 0.826179 21.2302 1.08478C21.6211 1.34339 21.9258 1.71095 22.1057 2.141C22.2857 2.57105 22.3327 3.04426 22.241 3.50079ZM7.06941 8.99284C7.52102 8.86317 7.92364 8.6038 8.22634 8.24753C8.52904 7.89127 8.71823 7.45412 8.76996 6.99139C8.82169 6.52866 8.73365 6.06113 8.51697 5.64794C8.30028 5.23476 7.9647 4.89449 7.55267 4.67016C7.14063 4.44584 6.67066 4.34754 6.20219 4.38771C5.73372 4.42788 5.28781 4.60471 4.92086 4.89583C4.55392 5.18695 4.28242 5.57928 4.14071 6.0232C3.999 6.46711 3.99346 6.94267 4.12477 7.3897C4.21177 7.68642 4.35695 7.96326 4.55202 8.20442C4.74709 8.44557 4.98824 8.64632 5.26168 8.79519C5.53513 8.94406 5.83552 9.03813 6.14569 9.07205C6.45586 9.10596 6.76974 9.07905 7.06941 8.99284ZM4.51875 14.7343C4.25725 14.965 3.94732 15.1354 3.61128 15.2333C3.01691 15.4 2.38055 15.3338 1.83409 15.0486C1.28763 14.7634 0.872971 14.2809 0.676045 13.7012C0.523733 13.2332 0.523342 12.7298 0.674922 12.2616C0.826503 11.7934 1.12244 11.384 1.52114 11.0909C1.91984 10.7978 2.40127 10.6358 2.89778 10.6276C3.39429 10.6194 3.88091 10.7654 4.28928 11.0452C4.60994 11.2627 4.97548 11.4069 5.35939 11.4672C5.74329 11.5276 6.13596 11.5026 6.50892 11.3942L8.84371 10.7241C9.21788 10.617 9.56325 10.4287 9.85472 10.173C10.1462 9.91718 10.3764 9.60032 10.5287 9.2454C10.7225 8.79287 11.0545 8.41179 11.4783 8.15569C11.902 7.89959 12.3961 7.78134 12.8912 7.81753C13.3863 7.85373 13.8575 8.04255 14.2386 8.3575C14.6197 8.67244 14.8917 9.09767 15.0162 9.57347C15.1652 10.1672 15.0775 10.7949 14.7711 11.3262C14.4647 11.8575 13.9633 12.2514 13.3711 12.4261C13.0347 12.5219 12.6809 12.5424 12.3355 12.4863C11.99 12.4302 11.6614 12.2987 11.3736 12.1015C11.0517 11.8812 10.6843 11.7348 10.2981 11.6728C9.91193 11.6108 9.51664 11.6349 9.141 11.7432L6.8109 12.4156C6.43606 12.5233 6.09015 12.7123 5.79829 12.9689C5.50642 13.2255 5.27593 13.5432 5.12355 13.8989C4.98681 14.2182 4.78025 14.5035 4.51875 14.7343ZM21.0981 15.7638C21.0094 16.0661 20.9828 16.3829 21.02 16.6956C21.0572 17.0082 21.1573 17.3103 21.3146 17.5839C21.4718 17.8575 21.6829 18.0971 21.9354 18.2884C22.1878 18.4798 22.4765 18.619 22.7843 18.6979C23.3841 18.8452 24.0182 18.7582 24.5549 18.4549C25.0916 18.1516 25.4897 17.6554 25.6667 17.0691C25.7628 16.7359 25.7833 16.3858 25.7266 16.0439C25.67 15.7019 25.5375 15.3767 25.3388 15.0914C25.1164 14.7727 24.9684 14.409 24.9056 14.0267C24.8428 13.6444 24.8668 13.253 24.9758 12.881L25.6526 10.5798C25.762 10.2089 25.9533 9.86679 26.2126 9.57808C26.4719 9.28936 26.7927 9.06128 27.1519 8.91032C27.4744 8.77507 27.7624 8.57059 27.9953 8.31165C28.2282 8.05271 28.4001 7.74578 28.4985 7.41305C28.6036 7.06164 28.6245 6.6908 28.5594 6.33002C28.4944 5.96924 28.3452 5.62846 28.1237 5.33478C27.9023 5.0411 27.6147 4.80262 27.2838 4.6383C26.953 4.47399 26.5879 4.38837 26.2178 4.38825C25.7842 4.38834 25.359 4.50588 24.9881 4.72813C24.6172 4.95039 24.3148 5.26888 24.1136 5.64912C23.9124 6.02936 23.8202 6.45685 23.8469 6.88528C23.8735 7.31371 24.0181 7.72676 24.2649 8.07967C24.4847 8.39754 24.6304 8.75984 24.6914 9.14034C24.7523 9.52083 24.7271 9.90999 24.6174 10.2796L23.9417 12.5866C23.8334 12.957 23.6432 13.2989 23.3849 13.5874C23.1266 13.876 22.8067 14.104 22.4483 14.2549C22.1239 14.3909 21.8342 14.5969 21.6006 14.858C21.367 15.1191 21.1954 15.4286 21.0981 15.7638ZM27.4492 13.7672C27.2819 13.303 27.2663 12.7984 27.4046 12.3248C27.5479 11.8354 27.8479 11.4052 28.2594 11.0991C28.6709 10.793 29.1717 10.6275 29.6865 10.6275C30.1843 10.6278 30.6695 10.7832 31.0733 11.0715C31.477 11.3599 31.779 11.7666 31.9365 12.2342C32.0939 12.7019 32.0989 13.2067 31.9507 13.6772C31.8024 14.1478 31.5085 14.5603 31.1105 14.8564C30.7124 15.1524 30.2304 15.3171 29.7327 15.3271C29.2349 15.337 28.7466 15.1917 28.3368 14.9118C27.927 14.6319 27.6165 14.2315 27.4492 13.7672ZM11.5392 17.04C11.6212 16.7359 11.6407 16.4187 11.5967 16.107C11.5527 15.7954 11.4461 15.4956 11.2831 15.2255C11.1201 14.9553 10.9041 14.7202 10.6477 14.5341C10.3914 14.348 10.1 14.2147 9.79079 14.142C9.61642 14.1009 9.43776 14.0802 9.2585 14.0803C8.73234 14.0826 8.22136 14.2552 7.80345 14.5717C7.38554 14.8882 7.08361 15.3314 6.94368 15.8336C6.85312 16.1697 6.83935 16.5217 6.90337 16.8638C6.9674 17.2059 7.10761 17.5296 7.31382 17.8113C7.54142 18.124 7.69624 18.4827 7.76714 18.8617C7.83805 19.2407 7.82328 19.6305 7.72391 20.0031L7.09644 22.3299C6.99504 22.703 6.81121 23.0491 6.55821 23.3432C6.30521 23.6374 5.98937 23.8722 5.63352 24.0308C5.31403 24.173 5.03033 24.3836 4.80278 24.6473C4.57524 24.911 4.4095 25.2213 4.31748 25.556C4.16185 26.1486 4.24276 26.7778 4.54341 27.3129C4.84406 27.848 5.34135 28.2479 5.93198 28.4295C6.40777 28.5703 6.91617 28.56 7.38574 28.4C7.8553 28.24 8.26241 27.9383 8.54988 27.5374C8.83734 27.1365 8.99069 26.6565 8.98839 26.1648C8.98609 25.6731 8.82824 25.1945 8.53703 24.7963C8.30918 24.4837 8.15456 24.1248 8.08444 23.7457C8.01431 23.3665 8.03044 22.9767 8.13164 22.6045L8.75794 20.2835C8.85845 19.911 9.04145 19.5653 9.29367 19.2715C9.5459 18.9777 9.86101 18.7432 10.2162 18.585C10.5392 18.4416 10.8258 18.2285 11.0547 17.9611C11.2837 17.6937 11.4493 17.379 11.5392 17.04ZM5.26251 19.2402C5.41373 19.6809 5.42958 20.1561 5.30804 20.6058C5.22731 20.9044 5.08795 21.1844 4.89792 21.4297C4.70789 21.675 4.47091 21.8808 4.20051 22.0354C3.93012 22.19 3.63161 22.2903 3.32204 22.3307C3.01247 22.371 2.6979 22.3506 2.3963 22.2706C1.94223 22.1501 1.53444 21.899 1.22449 21.549C0.914546 21.199 0.716362 20.766 0.655 20.3045C0.593639 19.843 0.671854 19.3739 0.879755 18.9565C1.08766 18.539 1.41591 18.192 1.82301 17.9592C2.23011 17.7264 2.69778 17.6184 3.16688 17.6488C3.63598 17.6792 4.08546 17.8466 4.45848 18.1298C4.83149 18.4131 5.11129 18.7995 5.26251 19.2402ZM26.0239 23.8004C25.5272 23.8001 25.0429 23.9539 24.6389 24.2401C24.235 24.5263 23.9318 24.9306 23.7719 25.3962C23.612 25.8618 23.6034 26.3653 23.7474 26.836C23.8913 27.3067 24.1806 27.7209 24.5745 28.0204C24.9684 28.32 25.4472 28.4898 25.9437 28.5061C26.4401 28.5224 26.9292 28.3844 27.3423 28.1113C27.7554 27.8382 28.0718 27.4439 28.2469 26.9837C28.422 26.5235 28.4471 26.0205 28.3187 25.5455C28.1844 25.0446 27.8864 24.6018 27.4713 24.2862C27.0562 23.9705 26.5473 23.7997 26.0239 23.8004ZM28.9991 17.7136C29.1964 17.661 29.3999 17.6344 29.6042 17.6345C30.1168 17.6364 30.6155 17.7999 31.0279 18.1013C31.4404 18.4027 31.7451 18.8264 31.8979 19.3109C32.0405 19.782 32.0303 20.2856 31.8689 20.7507C31.7074 21.2159 31.4027 21.6192 30.9977 21.904C30.5927 22.1888 30.1077 22.3408 29.6109 22.3385C29.1141 22.3362 28.6306 22.1798 28.2283 21.8913C27.9125 21.6658 27.5501 21.5127 27.1672 21.4431C26.7843 21.3734 26.3905 21.389 26.0145 21.4887L23.6679 22.1146C23.2917 22.2139 22.9426 22.3948 22.6458 22.6444C22.3491 22.8939 22.1122 23.2057 21.9524 23.5572C21.7493 24.006 21.4092 24.3804 20.98 24.6279C20.5509 24.8754 20.0541 24.9835 19.5597 24.937C19.0652 24.8906 18.5979 24.6918 18.2235 24.3688C17.849 24.0458 17.5862 23.6147 17.472 23.1361C17.3363 22.539 17.4381 21.9132 17.7563 21.3885C18.0744 20.8638 18.5845 20.4805 19.1805 20.3184C19.52 20.2287 19.8755 20.2151 20.221 20.2785C20.5666 20.3419 20.8935 20.4807 21.1781 20.6848C21.4944 20.911 21.8575 21.0646 22.2412 21.1346C22.6249 21.2047 23.0195 21.1893 23.3965 21.0897L25.7407 20.4685C26.1182 20.368 26.4683 20.1855 26.7655 19.9341C27.0627 19.6827 27.2995 19.3689 27.4586 19.0154C27.6021 18.6991 27.8148 18.4183 28.0812 18.1932C28.3475 17.9681 28.661 17.8043 28.9991 17.7136Z" fill="url(#paint0_linear_7363_5944)"/>
<path d="M15.6505 14.1083C15.1989 14.238 14.7963 14.4974 14.4936 14.8536C14.1909 15.2099 14.0017 15.647 13.95 16.1098C13.8982 16.5725 13.9863 17.04 14.203 17.4532C14.4197 17.8664 14.7552 18.2067 15.1673 18.431C15.5793 18.6553 16.0493 18.7536 16.5177 18.7134C16.9862 18.6733 17.4321 18.4964 17.7991 18.2053C18.166 17.9142 18.4375 17.5219 18.5792 17.078C18.7209 16.634 18.7265 16.1585 18.5952 15.7115C18.5082 15.4147 18.363 15.1379 18.1679 14.8967C17.9728 14.6556 17.7317 14.4548 17.4583 14.306C17.1848 14.1571 16.8844 14.063 16.5742 14.0291C16.2641 13.9952 15.9502 14.0221 15.6505 14.1083Z" fill="#FBD700"/>
<path d="M42.7578 20.7361C40.5323 20.7361 38.3772 19.9497 36.9895 18.6315L36.7075 18.3616L38.0071 15.8336L38.5206 16.3083C39.5946 17.3006 41.289 17.937 42.8389 17.937C43.5803 17.937 45.3064 17.7939 45.3311 16.4653C45.357 15.3939 44.2313 15.0006 42.3935 14.4457C40.2326 13.7977 37.53 12.9856 37.5488 9.88174C37.5488 8.46706 38.1422 7.3223 39.2632 6.55563C40.2103 5.91344 41.4958 5.57373 42.9716 5.57373C44.7342 5.57373 46.4791 6.07049 47.7622 6.93605L48.1394 7.19083L46.8798 9.76773L46.3781 9.45245C45.3205 8.79165 44.001 8.3961 42.8377 8.3961C41.9975 8.3961 40.5863 8.56828 40.5863 9.72468C40.5863 10.6554 41.6709 11.0242 43.4405 11.5524C45.673 12.219 48.4473 13.0485 48.4473 16.2373C48.4473 18.9713 46.2135 20.7361 42.7578 20.7361Z" fill="#1E7A75"/>
<path d="M58.383 20.7359C53.9437 20.7359 50.8428 17.6226 50.8428 13.1646C50.8428 11.0181 51.5913 9.08224 52.9578 7.71294C54.3244 6.34364 56.2362 5.59326 58.363 5.59326H58.4206C60.5556 5.59326 62.2641 6.24126 63.4979 7.51866C64.9162 8.98685 65.5989 11.2217 65.4743 13.9824L65.452 14.4838H54.0694C54.5923 16.5989 56.2597 17.8867 58.5428 17.8867C60.1467 17.8867 61.5227 17.3376 62.5226 16.2999L62.9092 15.8985L64.7728 17.8763L64.4509 18.2334C62.9938 19.8459 60.8388 20.7359 58.383 20.7359ZM54.0612 11.7429H62.4815C62.1584 9.6779 60.6214 8.42028 58.3559 8.42028C56.1739 8.41679 54.5441 9.70117 54.0612 11.7429Z" fill="#1E7A75"/>
<path d="M75.4906 20.7363C71.0348 20.7363 67.9233 17.6126 67.9233 13.1382C67.9233 10.9848 68.6754 9.04193 70.0384 7.67031C71.4014 6.29868 73.3285 5.54248 75.4612 5.54248H75.5188C77.662 5.54248 79.3752 6.19281 80.6137 7.47486C82.0367 8.9477 82.7229 11.1907 82.5972 13.9607L82.5748 14.461H71.157C71.6811 16.5876 73.3555 17.8813 75.6504 17.8813C77.2602 17.8813 78.642 17.331 79.6455 16.2887L80.0321 15.8873L81.9004 17.865L81.5784 18.2222C80.1155 19.8428 77.9511 20.7363 75.4906 20.7363ZM71.15 11.7107H79.6102C79.2871 9.63526 77.7431 8.37066 75.4671 8.37066C73.2709 8.3695 71.6329 9.66202 71.15 11.7107Z" fill="#1E7A75"/>
<path d="M92.3017 20.7628C90.2266 20.7628 88.3571 20.0008 87.0376 18.6175C85.718 17.2343 85.0083 15.3135 85.0083 13.1729C85.0083 8.72063 87.9964 5.61091 92.2747 5.61091C94.3146 5.61091 96.0231 6.30196 97.231 7.58866V0.0476074H100.366V20.7558H97.231V18.7967C96.0242 20.0753 94.324 20.7628 92.3017 20.7628ZM92.7001 8.52984C90.0175 8.52984 88.1445 10.4611 88.1445 13.2264C88.1445 15.9604 90.0175 17.8695 92.7001 17.8695C95.3827 17.8695 97.231 15.9604 97.231 13.2264C97.231 10.4634 95.3674 8.52984 92.7001 8.52984Z" fill="#1E7A75"/>
<path d="M116.436 20.758H103.876V18.4685L112.061 8.65183L104.106 8.65881V5.81899L116.209 5.81201V8.07945L108.003 17.9205L116.43 17.9135L116.436 20.758Z" fill="#1E7A75"/>
<path d="M40.4673 27.7292H37.9292L37.4028 28.9123H36.6978L38.8622 24.1797H39.5378L41.7105 28.9123H40.9925L40.4673 27.7292ZM40.2323 27.1882L39.2018 24.8684L38.1701 27.1882H40.2323Z" fill="#46BB8E"/>
<path d="M53.0698 26.8497V28.9124H52.4141V26.9241C52.4141 26.2261 52.0734 25.8771 51.4741 25.8771C50.8184 25.8771 50.3884 26.2889 50.3884 27.0661V28.9124H49.7327V26.9241C49.7327 26.2261 49.3919 25.8771 48.7927 25.8771C48.137 25.8771 47.7069 26.2889 47.7069 27.0661V28.9124H47.0513V25.3292H47.6799V25.8631C47.9384 25.4978 48.3849 25.2954 48.929 25.2954C49.473 25.2954 49.9466 25.5118 50.1863 25.9574C50.4589 25.5525 50.9641 25.2954 51.5787 25.2954C52.4694 25.2954 53.0698 25.7957 53.0698 26.8497Z" fill="#46BB8E"/>
<path d="M55.4126 27.1208C55.4126 26.0528 56.2116 25.2954 57.2927 25.2954C58.3737 25.2954 59.1727 26.0528 59.1727 27.1208C59.1727 28.1887 58.3796 28.9531 57.2927 28.9531C56.2057 28.9531 55.4126 28.1887 55.4126 27.1208ZM58.5135 27.1208C58.5135 26.3564 57.9941 25.8631 57.2973 25.8631C56.6006 25.8631 56.0753 26.3564 56.0753 27.1208C56.0753 27.8851 56.6006 28.3854 57.2973 28.3854C57.9941 28.3854 58.5135 27.8851 58.5135 27.1208Z" fill="#46BB8E"/>
<path d="M64.7905 27.3327H61.8529C61.9352 27.9609 62.4475 28.3797 63.1643 28.3797C63.3597 28.3868 63.5543 28.3517 63.7346 28.277C63.915 28.2023 64.0768 28.0897 64.2089 27.947L64.5708 28.3658C64.243 28.745 63.7483 28.9475 63.1443 28.9475C61.9763 28.9475 61.1973 28.1831 61.1973 27.1151C61.1973 26.0472 61.9693 25.2898 63.0139 25.2898C64.0585 25.2898 64.8034 26.0332 64.8034 27.1349C64.8034 27.1954 64.7964 27.2769 64.7905 27.3327ZM61.8529 26.8673H64.1748C64.1433 26.5843 64.0074 26.3228 63.7931 26.1328C63.5789 25.9429 63.3015 25.8378 63.0139 25.8378C62.7263 25.8378 62.4488 25.9429 62.2346 26.1328C62.0204 26.3228 61.8845 26.5843 61.8529 26.8673Z" fill="#46BB8E"/>
<path d="M70.5739 23.8958V28.9123H69.9465V28.3446C69.6527 28.7506 69.1874 28.9531 68.6539 28.9531C67.5964 28.9531 66.8232 28.2155 66.8232 27.1207C66.8232 26.026 67.5952 25.2954 68.6539 25.2954C68.8953 25.2861 69.1355 25.3333 69.355 25.4331C69.5744 25.533 69.767 25.6827 69.9171 25.8701V23.8923L70.5739 23.8958ZM69.9253 27.1207C69.9253 26.3564 69.4001 25.8631 68.7103 25.8631C68.0206 25.8631 67.493 26.3564 67.493 27.1207C67.493 27.8851 68.0194 28.3853 68.7162 28.3853C69.413 28.3853 69.9253 27.8851 69.9253 27.1207Z" fill="#46BB8E"/>
<path d="M76.1333 26.7508V28.9147H75.5117V28.4412C75.2931 28.7658 74.8913 28.9554 74.3237 28.9554C73.5012 28.9554 72.9854 28.5227 72.9854 27.9002C72.9854 27.3255 73.3614 26.8532 74.44 26.8532H75.4835V26.7252C75.4835 26.1773 75.1627 25.8597 74.5141 25.8597C74.0988 25.8556 73.6944 25.9914 73.3672 26.2448L73.0935 25.7585C73.5257 25.4426 74.0522 25.2788 74.5893 25.2931C75.574 25.2954 76.1333 25.7689 76.1333 26.7508ZM75.4776 27.82V27.3197H74.4671C73.8184 27.3197 73.634 27.5687 73.634 27.8735C73.634 28.2318 73.9348 28.4552 74.433 28.4552C74.9312 28.4552 75.3143 28.2295 75.4835 27.8176L75.4776 27.82Z" fill="#46BB8E"/>
<path d="M85.497 23.8958V28.9123H84.8684V28.3446C84.5746 28.7506 84.1105 28.9531 83.5758 28.9531C82.5183 28.9531 81.7451 28.2155 81.7451 27.1207C81.7451 26.026 82.5171 25.2954 83.5758 25.2954C83.8172 25.2862 84.0573 25.3334 84.2768 25.4333C84.4962 25.5331 84.6888 25.6828 84.839 25.8701V23.8923L85.497 23.8958ZM84.8484 27.1207C84.8484 26.3564 84.322 25.8631 83.6322 25.8631C82.9425 25.8631 82.4102 26.3564 82.4102 27.1207C82.4102 27.8851 82.9354 28.3853 83.6322 28.3853C84.329 28.3853 84.8484 27.8851 84.8484 27.1207Z" fill="#46BB8E"/>
<path d="M87.853 27.1208C87.853 26.0528 88.6521 25.2954 89.7331 25.2954C90.8141 25.2954 91.6131 26.0528 91.6131 27.1208C91.6131 28.1887 90.82 28.9531 89.7331 28.9531C88.6462 28.9531 87.853 28.1887 87.853 27.1208ZM90.9539 27.1208C90.9539 26.3564 90.4346 25.8631 89.7378 25.8631C89.041 25.8631 88.5157 26.3564 88.5157 27.1208C88.5157 27.8851 89.0422 28.3854 89.7378 28.3854C90.4334 28.3854 90.9539 27.8851 90.9539 27.1208Z" fill="#46BB8E"/>
<path d="M100.126 26.7507V28.9146H99.5046V28.4411C99.286 28.7657 98.8829 28.9553 98.3166 28.9553C97.4941 28.9553 96.9771 28.5225 96.9771 27.9001C96.9771 27.3254 97.3531 26.8531 98.4317 26.8531H99.4705V26.7251C99.4705 26.1771 99.1497 25.8595 98.4999 25.8595C98.0846 25.8555 97.6802 25.9913 97.3531 26.2446L97.0805 25.7583C97.4553 25.4605 97.9946 25.293 98.5751 25.293C99.5715 25.2953 100.126 25.7688 100.126 26.7507ZM99.4705 27.8198V27.3196H98.4599C97.8102 27.3196 97.6268 27.5686 97.6268 27.8734C97.6268 28.2317 97.9265 28.4551 98.4259 28.4551C98.9253 28.4551 99.306 28.2294 99.4705 27.8175V27.8198Z" fill="#46BB8E"/>
<path d="M106.269 25.3291V28.426C106.269 29.6906 105.619 30.2653 104.389 30.2653C103.727 30.2653 103.058 30.0827 102.662 29.7302L102.975 29.2299C103.373 29.5378 103.865 29.702 104.369 29.6953C105.222 29.6953 105.612 29.3032 105.612 28.4923V28.2085C105.45 28.3905 105.248 28.5345 105.023 28.6303C104.797 28.726 104.553 28.7711 104.308 28.7622C103.262 28.7622 102.47 28.0642 102.47 27.0253C102.47 25.9864 103.262 25.2942 104.308 25.2942C104.847 25.2942 105.338 25.4896 105.646 25.8759V25.3221L106.269 25.3291ZM105.626 27.0265C105.626 26.3284 105.108 25.8631 104.384 25.8631C103.661 25.8631 103.134 26.3284 103.134 27.0265C103.134 27.7245 103.653 28.1899 104.384 28.1899C105.115 28.1899 105.63 27.7152 105.63 27.0265H105.626Z" fill="#46BB8E"/>
<path d="M110.916 25.2954V25.9236C110.866 25.918 110.816 25.9156 110.766 25.9167C110.061 25.9167 109.626 26.3436 109.626 27.1277V28.9124H108.972V25.3292H109.599V25.9364C109.831 25.5118 110.281 25.2954 110.916 25.2954Z" fill="#46BB8E"/>
<path d="M112.801 27.1208C112.801 26.0528 113.6 25.2954 114.681 25.2954C115.762 25.2954 116.561 26.0528 116.561 27.1208C116.561 28.1887 115.768 28.9531 114.681 28.9531C113.594 28.9531 112.801 28.1887 112.801 27.1208ZM115.902 27.1208C115.902 26.3564 115.383 25.8631 114.686 25.8631C113.989 25.8631 113.464 26.3564 113.464 27.1208C113.464 27.8851 113.99 28.3854 114.686 28.3854C115.382 28.3854 115.905 27.8851 115.905 27.1208H115.902Z" fill="#46BB8E"/>
<defs>
<linearGradient id="paint0_linear_7363_5944" x1="16.3099" y1="0.687012" x2="16.3099" y2="32.0477" gradientUnits="userSpaceOnUse">
<stop stop-color="#08958A"/>
<stop offset="0.505208" stop-color="#1C9D84"/>
<stop offset="1" stop-color="#46BB8E"/>
</linearGradient>
</defs>
</svg>
